<svg xmlns="http://www.w3.org/2000/svg" width="810" height="554" viewBox="0 0 810 554" role="img" aria-label="Vyntra Property Services VP logo">
  <defs>
    <linearGradient id="gold" x1="0%" y1="0%" x2="100%" y2="100%">
      <stop offset="0%" stop-color="#FFD768"/>
      <stop offset="48%" stop-color="#D4AF37"/>
      <stop offset="100%" stop-color="#B8860B"/>
    </linearGradient>
  </defs>
  <path d="M 8.0 8.0 L 8.0 11.0 L 12.0 19.0 L 20.0 33.0 L 33.0 54.0 L 41.0 70.0 L 51.0 86.0 L 68.0 118.0 L 81.0 141.0 L 95.0 164.0 L 130.0 228.0 L 157.0 274.0 L 165.0 290.0 L 174.0 304.0 L 191.0 334.0 L 196.0 343.0 L 201.0 352.0 L 205.0 361.0 L 210.0 370.0 L 216.0 379.0 L 220.0 388.0 L 225.0 395.0 L 234.0 411.0 L 251.0 443.0 L 256.0 450.0 L 266.0 470.0 L 271.0 477.0 L 279.0 493.0 L 284.0 500.0 L 292.0 516.0 L 302.0 532.0 L 306.0 541.0 L 309.0 545.0 L 311.0 540.0 L 312.0 538.0 L 320.0 523.0 L 328.0 510.0 L 335.0 497.0 L 352.0 465.0 L 361.0 446.0 L 371.0 429.0 L 382.0 408.0 L 392.0 387.0 L 401.0 370.0 L 411.0 353.0 L 420.0 336.0 L 432.0 311.0 L 444.0 290.0 L 455.0 269.0 L 455.0 267.0 L 456.0 265.0 L 466.0 246.0 L 468.0 244.0 L 478.0 225.0 L 479.0 221.0 L 487.0 208.0 L 488.0 204.0 L 496.0 189.0 L 499.0 185.0 L 507.0 170.0 L 508.0 168.0 L 509.0 164.0 L 517.0 151.0 L 526.0 134.0 L 535.0 117.0 L 535.0 115.0 L 543.0 100.0 L 545.0 98.0 L 639.0 99.0 L 643.0 98.0 L 654.0 99.0 L 659.0 100.0 L 668.0 103.0 L 673.0 105.0 L 675.0 106.0 L 680.0 109.0 L 683.0 111.0 L 688.0 115.0 L 697.0 124.0 L 700.0 128.0 L 702.0 131.0 L 704.0 134.0 L 707.0 140.0 L 709.0 145.0 L 710.0 149.0 L 712.0 157.0 L 713.0 169.0 L 712.0 179.0 L 711.0 184.0 L 707.0 196.0 L 704.0 202.0 L 702.0 205.0 L 700.0 208.0 L 697.0 212.0 L 687.0 222.0 L 683.0 225.0 L 678.0 228.0 L 670.0 232.0 L 661.0 235.0 L 657.0 236.0 L 652.0 237.0 L 643.0 238.0 L 536.0 238.0 L 535.0 240.0 L 533.0 245.0 L 526.0 258.0 L 520.0 267.0 L 514.0 278.0 L 509.0 289.0 L 492.0 320.0 L 490.0 322.0 L 487.0 329.0 L 486.0 331.0 L 488.0 330.0 L 548.0 330.0 L 550.0 330.0 L 639.0 331.0 L 659.0 330.0 L 669.0 329.0 L 680.0 327.0 L 684.0 326.0 L 688.0 325.0 L 706.0 319.0 L 715.0 315.0 L 717.0 313.0 L 719.0 313.0 L 728.0 308.0 L 737.0 302.0 L 741.0 299.0 L 746.0 295.0 L 765.0 276.0 L 770.0 270.0 L 775.0 263.0 L 777.0 260.0 L 781.0 253.0 L 788.0 239.0 L 790.0 234.0 L 792.0 228.0 L 795.0 219.0 L 798.0 207.0 L 799.0 201.0 L 800.0 195.0 L 801.0 185.0 L 801.0 157.0 L 800.0 147.0 L 799.0 140.0 L 798.0 135.0 L 795.0 123.0 L 793.0 117.0 L 790.0 108.0 L 788.0 103.0 L 779.0 85.0 L 774.0 77.0 L 769.0 70.0 L 766.0 66.0 L 762.0 61.0 L 746.0 45.0 L 741.0 41.0 L 736.0 37.0 L 727.0 31.0 L 722.0 28.0 L 708.0 21.0 L 703.0 19.0 L 685.0 13.0 L 676.0 11.0 L 670.0 10.0 L 663.0 9.0 L 649.0 8.0 L 484.0 8.0 L 482.0 9.0 L 481.0 12.0 L 476.0 20.0 L 476.0 22.0 L 467.0 39.0 L 459.0 52.0 L 451.0 67.0 L 441.0 86.0 L 440.0 90.0 L 432.0 103.0 L 423.0 120.0 L 415.0 137.0 L 407.0 152.0 L 398.0 169.0 L 390.0 182.0 L 383.0 197.0 L 366.0 227.0 L 358.0 242.0 L 349.0 259.0 L 340.0 278.0 L 332.0 291.0 L 316.0 323.0 L 314.0 325.0 L 312.0 330.0 L 311.0 332.0 L 308.0 333.0 L 306.0 331.0 L 303.0 326.0 L 298.0 317.0 L 287.0 298.0 L 283.0 289.0 L 275.0 275.0 L 257.0 245.0 L 245.0 222.0 L 236.0 208.0 L 228.0 194.0 L 219.0 176.0 L 200.0 144.0 L 196.0 135.0 L 192.0 128.0 L 187.0 121.0 L 183.0 114.0 L 179.0 105.0 L 165.0 82.0 L 129.0 18.0 L 126.0 11.0 L 125.0 9.0 Z" fill="url(#gold)"/>
</svg>
